<svg 
 xmlns="http://www.w3.org/2000/svg"
 xmlns:xlink="http://www.w3.org/1999/xlink"
 width="14px" height="14px">
<path fill-rule="evenodd"  fill="rgb(255, 255, 255)"
 d="M12.689,14.000 L1.311,14.000 C0.587,14.000 -0.001,13.470 -0.001,12.817 C-0.001,12.164 0.587,11.634 1.311,11.634 L12.689,11.634 C13.414,11.634 14.002,12.164 14.002,12.817 C14.002,13.470 13.414,14.000 12.689,14.000 ZM7.989,10.004 C7.749,10.245 7.405,10.399 7.017,10.399 C6.630,10.399 6.285,10.245 6.041,10.007 L2.107,6.061 C1.897,5.851 1.766,5.576 1.766,5.272 C1.766,4.619 2.354,4.089 3.079,4.089 C3.466,4.089 3.811,4.243 4.055,4.480 L5.705,6.133 L5.705,1.183 C5.705,0.529 6.292,-0.000 7.017,-0.000 C7.742,-0.000 8.330,0.529 8.330,1.183 L8.330,6.133 L9.984,4.484 C10.224,4.243 10.568,4.089 10.956,4.089 C11.681,4.089 12.269,4.619 12.269,5.272 C12.269,5.576 12.137,5.851 11.932,6.064 L7.989,10.004 Z"/>
</svg>