<svg 
 xmlns="http://www.w3.org/2000/svg"
 xmlns:xlink="http://www.w3.org/1999/xlink"
 width="16px" height="16px">
<path fill-rule="evenodd"  fill="rgb(244, 250, 255)"
 d="M8.045,6.340 L3.094,1.239 C2.623,0.883 1.798,0.883 1.326,1.239 C0.855,1.595 0.855,2.426 1.326,2.900 L6.395,8.001 L1.444,12.983 C0.973,13.457 0.973,14.169 1.444,14.644 C1.916,15.118 2.623,15.118 3.094,14.644 L8.045,9.661 L12.996,14.644 C13.468,15.118 14.175,15.118 14.646,14.644 C15.118,14.169 15.118,13.457 14.646,12.983 L9.695,8.001 L14.646,3.019 C15.118,2.544 15.118,1.832 14.646,1.358 C14.175,0.883 13.468,0.883 12.996,1.358 L8.045,6.340 Z"/>
</svg>