<svg 
 xmlns="http://www.w3.org/2000/svg"
 xmlns:xlink="http://www.w3.org/1999/xlink"
 width="14px" height="14px">
<path fill-rule="evenodd"  fill="rgb(255, 255, 255)"
 d="M5.703,13.469 C6.029,13.789 6.488,13.996 7.004,13.996 C7.520,13.996 7.979,13.789 8.299,13.466 L13.554,8.162 C13.828,7.876 14.003,7.506 14.003,7.097 C14.003,6.218 13.219,5.504 12.253,5.504 C11.737,5.504 11.278,5.712 10.958,6.036 L8.754,8.255 L8.754,1.593 C8.754,0.714 7.970,0.001 7.004,0.001 C6.038,0.001 5.254,0.714 5.254,1.593 L5.254,8.255 L3.056,6.031 C2.730,5.712 2.271,5.504 1.755,5.504 C0.789,5.504 0.005,6.217 0.005,7.097 C0.005,7.506 0.180,7.876 0.459,8.158 L5.703,13.469 Z"/>
</svg>