<svg width="22" height="22" xmlns="http://www.w3.org/2000/svg">

 <g>
  <title>background</title>
  <rect fill="none" id="canvas_background" height="24" width="24" y="-1" x="-1"/>
 </g>
 <g>
  <title>Layer 1</title>
  <path id="svg_1" d="m20.210999,20.2345c-0.526,0.513 -1.16,0.77 -1.903,0.77l-2.691,0c-0.249,0 -0.46,-0.085 -0.635,-0.259c-0.175,-0.169 -0.263,-0.377 -0.263,-0.618c0,-0.241 0.088,-0.447 0.263,-0.618c0.175,-0.171 0.386,-0.257 0.635,-0.257l2.691,0c0.247,0 0.459,-0.085 0.634,-0.256c0.176,-0.171 0.263,-0.377 0.263,-0.62l0,-2.624c0,-0.243 0.088,-0.449 0.264,-0.618c0.175,-0.173 0.386,-0.259 0.634,-0.259l-0.002,0.003c0.248,0 0.46,0.085 0.635,0.256c0.175,0.172 0.263,0.378 0.263,0.618l0,2.626c0,0.725 -0.263,1.343 -0.788,1.856zm-0.11,-13.11c-0.247,0 -0.459,-0.083 -0.634,-0.257c-0.176,-0.168 -0.263,-0.377 -0.263,-0.618l0,-2.627c0,-0.241 -0.087,-0.447 -0.263,-0.618c-0.175,-0.171 -0.387,-0.257 -0.635,-0.257l-2.69,0c-0.248,0 -0.459,-0.085 -0.634,-0.256c-0.176,-0.172 -0.263,-0.378 -0.263,-0.618c0,-0.244 0.087,-0.45 0.263,-0.621c0.175,-0.171 0.386,-0.257 0.634,-0.257l0.001,0.003l2.691,0c0.743,0 1.377,0.256 1.903,0.768c0.525,0.513 0.788,1.131 0.788,1.856l0,2.627c0,0.241 -0.088,0.45 -0.263,0.618c-0.175,0.174 -0.387,0.257 -0.635,0.257zm-6.474,8.177c-1.574,0.887 -3.514,0.887 -5.089,0c-1.574,-0.887 -2.544,-2.527 -2.544,-4.301c0,-2.743 2.278,-4.967 5.089,-4.967c2.81,0 5.089,2.224 5.089,4.967c0,1.774 -0.97,3.414 -2.545,4.301zm-7.242,-12.554l-2.691,0c-0.248,0 -0.459,0.083 -0.634,0.257c-0.177,0.169 -0.264,0.378 -0.264,0.618l0,2.625c0,0.243 -0.087,0.449 -0.263,0.62c-0.175,0.171 -0.387,0.257 -0.634,0.257c-0.248,0 -0.459,-0.086 -0.634,-0.257c-0.176,-0.171 -0.264,-0.377 -0.264,-0.62l0,-2.625c0,-0.725 0.263,-1.343 0.789,-1.856c0.525,-0.514 1.159,-0.771 1.902,-0.771l2.692,0c0.248,0 0.46,0.086 0.634,0.257c0.176,0.171 0.264,0.377 0.264,0.618c0,0.243 -0.088,0.449 -0.264,0.618c-0.174,0.174 -0.386,0.259 -0.633,0.259zm-4.487,12.128c0.248,0 0.459,0.086 0.634,0.257l0,0c0.176,0.171 0.263,0.377 0.263,0.618l0,2.627c0,0.241 0.087,0.447 0.264,0.618c0.175,0.171 0.386,0.257 0.633,0.257l2.692,0c0.248,0 0.46,0.085 0.634,0.257c0.176,0.171 0.264,0.377 0.264,0.62c0,0.241 -0.088,0.447 -0.264,0.618c-0.175,0.171 -0.386,0.257 -0.634,0.257l-2.692,0c-0.743,0 -1.376,-0.257 -1.902,-0.77c-0.526,-0.512 -0.789,-1.132 -0.789,-1.857l0,-2.624c0,-0.241 0.087,-0.45 0.264,-0.621c0.175,-0.171 0.386,-0.257 0.633,-0.257zm0.001,0c-0.001,0 -0.001,0 -0.001,0c0,0 0,0 0,0l0.001,0z" fill-rule="evenodd"/>
 </g>
</svg>