<svg width="22" height="22" xmlns="http://www.w3.org/2000/svg">

 <g>
  <title>background</title>
  <rect fill="none" id="canvas_background" height="24" width="24" y="-1" x="-1"/>
 </g>
 <g>
  <title>Layer 1</title>
  <path id="svg_1" d="m20.212,20.211c-0.526,0.526 -1.16,0.789 -1.903,0.789l-2.692,0c-0.248,0 -0.459,-0.088 -0.634,-0.266c-0.176,-0.172 -0.264,-0.386 -0.264,-0.633c0,-0.246 0.088,-0.458 0.264,-0.633c0.175,-0.175 0.386,-0.263 0.634,-0.263l2.692,0c0.247,0 0.459,-0.088 0.634,-0.263c0.176,-0.175 0.263,-0.386 0.263,-0.636l0,-2.688c0,-0.249 0.088,-0.461 0.264,-0.633c0.175,-0.178 0.386,-0.266 0.634,-0.266l-0.002,0.003c0.248,0 0.46,0.088 0.635,0.263c0.176,0.175 0.263,0.386 0.263,0.633l0,2.691c0,0.743 -0.263,1.376 -0.788,1.902zm-0.11,-12.93c-0.247,0 -0.459,-0.085 -0.633,-0.263c-0.177,-0.173 -0.264,-0.387 -0.264,-0.633l0,-2.693c0,-0.247 -0.087,-0.458 -0.263,-0.633c-0.175,-0.175 -0.387,-0.263 -0.635,-0.263l-2.69,0c-0.248,0 -0.46,-0.088 -0.635,-0.263c-0.176,-0.176 -0.263,-0.387 -0.263,-0.634c0,-0.249 0.088,-0.46 0.263,-0.636c0.175,-0.175 0.387,-0.263 0.635,-0.263l0.001,0.003l2.691,0c0.743,0 1.377,0.263 1.903,0.787c0.525,0.526 0.788,1.159 0.788,1.902l0,2.693c0,0.246 -0.087,0.46 -0.263,0.633c-0.175,0.178 -0.387,0.263 -0.635,0.263zm-2.636,3.802c0,2.28 -1.217,4.387 -3.192,5.527c-1.975,1.141 -4.408,1.141 -6.383,0c-1.975,-1.14 -3.191,-3.247 -3.191,-5.527c0,-3.525 2.857,-6.383 6.383,-6.383c3.525,0 6.383,2.858 6.383,6.383zm-11.082,-8.287l-2.691,0c-0.248,0 -0.46,0.085 -0.634,0.263c-0.177,0.173 -0.264,0.387 -0.264,0.633l0,2.69c0,0.249 -0.088,0.46 -0.264,0.636c-0.174,0.175 -0.386,0.263 -0.633,0.263c-0.248,0 -0.46,-0.088 -0.635,-0.263c-0.175,-0.176 -0.263,-0.387 -0.263,-0.636l0,-2.69c0,-0.743 0.263,-1.376 0.788,-1.902c0.526,-0.527 1.16,-0.79 1.903,-0.79l2.692,0c0.248,0 0.46,0.088 0.634,0.263c0.177,0.176 0.264,0.387 0.264,0.634c0,0.249 -0.087,0.46 -0.263,0.633c-0.175,0.178 -0.387,0.266 -0.634,0.266zm-4.487,11.923c0.247,0 0.458,0.088 0.633,0.263l0,0c0.177,0.176 0.264,0.387 0.264,0.634l0,2.692c0,0.247 0.087,0.458 0.263,0.633c0.176,0.175 0.387,0.263 0.634,0.263l2.692,0c0.248,0 0.46,0.088 0.635,0.263c0.176,0.176 0.263,0.387 0.263,0.636c0,0.247 -0.087,0.458 -0.263,0.634c-0.175,0.175 -0.387,0.263 -0.635,0.263l-2.692,0c-0.743,0 -1.376,-0.263 -1.902,-0.79c-0.526,-0.523 -0.789,-1.159 -0.789,-1.902l0,-2.69c0,-0.247 0.087,-0.46 0.263,-0.636c0.175,-0.175 0.387,-0.263 0.634,-0.263zm0,0c0,0 0,0 0,0c0,0 0,0 -0.001,0l0.001,0z" fill-rule="evenodd"/>
 </g>
</svg>