<svg width="22" height="22" xmlns="http://www.w3.org/2000/svg">

 <g>
  <title>background</title>
  <rect fill="none" id="canvas_background" height="24" width="24" y="-1" x="-1"/>
 </g>
 <g>
  <title>Layer 1</title>
  <path id="svg_1" d="m17.968446,18.1835l-4.357,-1.541l7.33,-6.756c0.028,0.251 0.046,0.504 0.055,0.76c0.105,2.943 -1.072,5.634 -3.028,7.537zm-2.936,-16.348c2.773,1.224 4.897,3.676 5.662,6.691l-3.562,3.176l-2.1,-9.867zm-4.386,-0.841c1.071,-0.038 2.109,0.095 3.087,0.372l1.074,4.826l-9.726,-3.265c1.564,-1.151 3.479,-1.86 5.565,-1.933zm-9.586,11.133c-0.029,-0.255 -0.048,-0.513 -0.057,-0.773c-0.104,-2.942 1.071,-5.631 3.024,-7.533l4.839,1.434l-7.806,6.872zm5.904,8.036c-2.767,-1.223 -4.887,-3.668 -5.655,-6.675l3.524,-2.807l2.131,9.482zm4.389,0.842c-1.072,0.038 -2.11,-0.095 -3.09,-0.373l-1.057,-4.718l9.707,3.162c-1.563,1.148 -3.476,1.856 -5.56,1.929z" fill-rule="evenodd"/>
 </g>
</svg>