<svg width="22" height="22" xmlns="http://www.w3.org/2000/svg">

 <g>
  <title>background</title>
  <rect fill="none" id="canvas_background" height="24" width="24" y="-1" x="-1"/>
 </g>
 <g>
  <title>Layer 1</title>
  <path id="svg_1" d="m17.968446,18.1835l-5.815,-4.193l0,0l8.788,-4.104c0.028,0.251 0.046,0.504 0.055,0.76c0.105,2.943 -1.072,5.634 -3.028,7.537zm-2.936,-16.348c2.773,1.224 4.897,3.676 5.662,6.691l-6.492,3.051l0.83,-9.742zm-9.951,1.092c1.564,-1.151 3.479,-1.859 5.565,-1.933c1.071,-0.038 2.109,0.095 3.087,0.372l-0.683,7.176l-7.969,-5.615zm4.767,5.097l-8.788,4.103c-0.029,-0.255 -0.048,-0.513 -0.057,-0.773c-0.104,-2.942 1.071,-5.631 3.024,-7.533l5.821,4.203l0,0zm-2.049,2.393l-0.835,9.746c-2.767,-1.223 -4.887,-3.668 -5.655,-6.675l6.49,-3.071l0,0zm1.169,3.045l7.945,5.614c-1.563,1.148 -3.475,1.856 -5.56,1.929c-1.072,0.038 -2.11,-0.095 -3.09,-0.373l0.705,-7.17l0,0z" fill-rule="evenodd"/>
 </g>
</svg>