<svg width="22" height="22" xmlns="http://www.w3.org/2000/svg">

 <g>
  <title>background</title>
  <rect fill="none" id="canvas_background" height="24" width="24" y="-1" x="-1"/>
 </g>
 <g>
  <title>Layer 1</title>
  <path id="svg_1" d="m17.833593,9.2055c1.301,0.747 2.897,2.764 3.562,5.191c0.664,2.428 0.554,4.601 0.554,4.601c0,0 -0.86,-1.339 -1.209,-1.808c-0.348,-0.469 -1.818,-2.218 -4.099,-3.231c-2.28,-1.013 -6.092,-0.832 -6.092,-0.832l0,4.219l-10.506,-7.172l10.506,-7.171l0,4.258c0,0 2.524,0.183 3.843,0.446c2.222,0.444 3.441,1.499 3.441,1.499l0,0z" fill-rule="evenodd"/>
 </g>
</svg>