<svg 
 xmlns="http://www.w3.org/2000/svg"
 xmlns:xlink="http://www.w3.org/1999/xlink"
 width="14px" height="14px">
<path fill-rule="evenodd"  fill="rgb(255, 255, 255)"
 d="M12.688,2.366 L1.311,2.366 C0.586,2.366 -0.002,1.836 -0.002,1.183 C-0.002,0.530 0.586,-0.000 1.311,-0.000 L12.688,-0.000 C13.413,-0.000 14.001,0.530 14.001,1.183 C14.001,1.836 13.413,2.366 12.688,2.366 ZM6.011,3.995 C6.251,3.755 6.595,3.601 6.983,3.601 C7.370,3.601 7.715,3.755 7.959,3.993 L11.893,7.939 C12.103,8.149 12.234,8.424 12.234,8.728 C12.234,9.381 11.646,9.911 10.921,9.911 C10.534,9.911 10.189,9.757 9.945,9.520 L8.295,7.867 L8.295,12.817 C8.295,13.471 7.707,14.000 6.983,14.000 C6.258,14.000 5.670,13.471 5.670,12.817 L5.670,7.867 L4.016,9.516 C3.776,9.757 3.432,9.911 3.044,9.911 C2.319,9.911 1.731,9.381 1.731,8.728 C1.731,8.424 1.862,8.149 2.068,7.936 L6.011,3.995 Z"/>
</svg>