<svg width="22" height="22" xmlns="http://www.w3.org/2000/svg">

 <g>
  <title>background</title>
  <rect fill="none" id="canvas_background" height="24" width="24" y="-1" x="-1"/>
 </g>
 <g>
  <title>Layer 1</title>
  <path id="svg_1" d="m18.728107,16.2355c0.259,0 0.345,-0.173 0.188,-0.384l-3.219,-4.303c-0.157,-0.211 -0.071,-0.383 0.187,-0.383l0.844,0c0.261,0 0.345,-0.173 0.187,-0.384l-3.379,-4.522c-0.16,-0.212 -0.074,-0.384 0.187,-0.384l0.617,0c0.259,0 0.345,-0.172 0.188,-0.384l-3.24,-4.333c-0.157,-0.212 -0.416,-0.212 -0.574,0l-3.239,4.333c-0.158,0.212 -0.073,0.384 0.187,0.384l0.617,0c0.26,0 0.345,0.172 0.186,0.384l-3.38,4.522c-0.157,0.211 -0.074,0.384 0.186,0.384l0.844,0c0.26,0 0.344,0.172 0.186,0.383l-3.216,4.303c-0.158,0.211 -0.074,0.384 0.186,0.384l6.265,0c0.26,0 0.473,0.215 0.473,0.481l0,3.802c0,0.264 0.214,0.482 0.473,0.482l1.031,0c0.259,0 0.473,-0.217 0.473,-0.482l0,-3.802c0,-0.265 0.213,-0.481 0.473,-0.481l6.269,0l0,0z" fill-rule="evenodd"/>
 </g>
</svg>