<svg width="22" height="22" xmlns="http://www.w3.org/2000/svg">

 <g>
  <title>background</title>
  <rect fill="none" id="canvas_background" height="24" width="24" y="-1" x="-1"/>
 </g>
 <g>
  <title>Layer 1</title>
  <path stroke="null" id="svg_1" d="m21.461002,13.909125c0.074305,0.127 0.033922,0.23 -0.088036,0.23l-2.956063,0c-0.121958,0 -0.222916,0.13 -0.222916,0.288l0,2.28c0,0.159 -0.100958,0.289 -0.222916,0.289l-0.486216,0c-0.121958,0 -0.222916,-0.13 -0.222916,-0.289l0,-2.28c0,-0.159 -0.100151,-0.288 -0.222916,-0.288l-2.395542,0l-0.558098,0l-2.397157,0c-0.122765,0 -0.222916,0.13 -0.222916,0.288l0,2.28c0,0.159 -0.100958,0.289 -0.222916,0.289l-0.486216,0c-0.122765,0 -0.222916,-0.13 -0.222916,-0.289l0,-2.28c0,-0.159 -0.100958,-0.288 -0.222916,-0.288l-2.395542,0l0,0l-0.558906,0l-2.397157,0c-0.121958,0 -0.222916,0.13 -0.222916,0.288l0,2.28c0,0.159 -0.100958,0.289 -0.222916,0.289l-0.486216,0c-0.121958,0 -0.222916,-0.13 -0.222916,-0.289l0,-2.28c0,-0.159 -0.100151,-0.288 -0.222916,-0.288l-2.95364,0c-0.122765,0 -0.162341,-0.103 -0.088036,-0.23l1.515992,-2.58c0.075113,-0.127 0.03473,-0.23 -0.087228,-0.23l-0.39818,0c-0.121958,0 -0.161533,-0.104 -0.087228,-0.23l1.593528,-2.712c0.074305,-0.127 0.03473,-0.23 -0.088036,-0.23l-0.29076,0c-0.122765,0 -0.162341,-0.103 -0.088036,-0.23l1.527299,-2.598c0.074305,-0.127 0.196263,-0.127 0.270569,0l1.527299,2.598c0.074305,0.127 0.033922,0.23 -0.088843,0.23l-0.29076,0c-0.122765,0 -0.163149,0.103 -0.088036,0.23l1.593528,2.712c0.073498,0.126 0.033922,0.23 -0.088843,0.23l-0.397372,0c-0.121958,0 -0.162341,0.103 -0.088843,0.23l1.150119,1.955l1.149311,-1.955c0.074305,-0.127 0.03473,-0.23 -0.088036,-0.23l-0.397372,0c-0.122765,0 -0.162341,-0.104 -0.088036,-0.23l1.593528,-2.712c0.075113,-0.127 0.03473,-0.23 -0.087228,-0.23l-0.291568,0c-0.121958,0 -0.162341,-0.103 -0.088036,-0.23l1.527299,-2.598c0.074305,-0.127 0.196263,-0.127 0.270569,0l1.527299,2.598c0.074305,0.127 0.033922,0.23 -0.088036,0.23l-0.29076,0c-0.123573,0 -0.163957,0.103 -0.088843,0.23l1.593528,2.712c0.074305,0.126 0.03473,0.23 -0.088036,0.23l-0.39818,0c-0.121958,0 -0.162341,0.103 -0.088036,0.23l1.150119,1.955l1.148503,-1.955c0.075113,-0.127 0.03473,-0.23 -0.087228,-0.23l-0.39818,0c-0.122765,0 -0.161533,-0.104 -0.088036,-0.23l1.594336,-2.712c0.074305,-0.127 0.03473,-0.23 -0.088036,-0.23l-0.29076,0c-0.122765,0 -0.162341,-0.103 -0.088843,-0.23l1.528107,-2.598c0.074305,-0.127 0.196263,-0.127 0.269761,0l1.528107,2.598c0.074305,0.127 0.033114,0.23 -0.088843,0.23l-0.29076,0c-0.122765,0 -0.163149,0.103 -0.088036,0.23l1.59272,2.712c0.074305,0.126 0.03473,0.23 -0.088036,0.23l-0.397372,0c-0.121958,0 -0.163149,0.103 -0.088843,0.23l1.517607,2.58z" fill-rule="evenodd"/>
 </g>
</svg>