<svg 
 xmlns="http://www.w3.org/2000/svg"
 xmlns:xlink="http://www.w3.org/1999/xlink"
 width="14px" height="14px">
<path fill-rule="evenodd"  fill="rgb(255, 255, 255)"
 d="M8.297,0.531 C7.971,0.211 7.512,0.004 6.996,0.004 C6.480,0.004 6.020,0.211 5.700,0.534 L0.446,5.838 C0.172,6.124 -0.003,6.494 -0.003,6.903 C-0.003,7.782 0.780,8.496 1.747,8.496 C2.263,8.496 2.722,8.288 3.042,7.964 L5.246,5.745 L5.246,12.406 C5.246,13.286 6.030,13.999 6.996,13.999 C7.962,13.999 8.746,13.286 8.746,12.406 L8.746,5.745 L10.944,7.969 C11.270,8.288 11.729,8.496 12.245,8.496 C13.211,8.496 13.995,7.783 13.995,6.903 C13.995,6.494 13.820,6.124 13.541,5.842 L8.297,0.531 Z"/>
</svg>