<svg width="12" height="12" xmlns="http://www.w3.org/2000/svg">

 <g>
  <title>background</title>
  <rect fill="none" id="canvas_background" height="14" width="14" y="-1" x="-1"/>
 </g>
 <g>
  <title>Layer 1</title>
  <path id="svg_1" d="m10.574667,8.886747c-0.074667,0.062767 -0.224668,0.125533 -0.374667,0.125533c-0.15,0.124978 -0.299999,0.062767 -0.375333,0c-0.224668,-0.187745 -0.224668,-0.501024 0,-0.688769c1.425333,-1.315327 1.425333,-3.319423 0,-4.63475c-0.224668,-0.187745 -0.224668,-0.501024 0,-0.688769c0.225333,-0.187745 0.525332,-0.187745 0.75,0c0.9,0.814303 1.425333,1.816351 1.425333,2.943377c0,1.127583 -0.525333,2.191841 -1.425333,2.943378zm-1.874667,-0.876514c-0.150666,0.187744 -0.225333,0.250511 -0.375333,0.250511c-0.150001,0 -0.3,-0.062767 -0.374667,-0.125534c-0.225334,-0.187744 -0.225334,-0.501023 0,-0.688768c0.899333,-0.814303 0.899333,-2.066863 0,-2.880611c-0.225334,-0.188301 -0.225334,-0.501024 0,-0.689325c0.224666,-0.187745 0.524666,-0.187745 0.75,0c1.35,1.127582 1.35,3.006145 0,4.133727zm-3.075333,2.755632l-2.625333,-2.066864l-1.5,0c-0.824667,0 -1.5,-0.626001 -1.5,-1.377538l0,-2.755632c0,-0.751536 0.675333,-1.378094 1.5,-1.378094l1.425333,0l2.7,-1.941329c0.6,-0.501024 1.124667,-0.187745 1.124667,0.501024l0,8.51741c0,0.751536 -0.524667,0.939281 -1.124667,0.501024z" fill-rule="evenodd"/>
 </g>
</svg>