<svg width="12" height="12" xmlns="http://www.w3.org/2000/svg">

 <g>
  <title>background</title>
  <rect fill="none" id="canvas_background" height="14" width="14" y="-1" x="-1"/>
 </g>
 <g>
  <title>Layer 1</title>
  <path id="svg_1" d="m10.843731,6.250515l1.484167,1.183761c0.230388,0.178869 0.230388,0.476614 0,0.654374c-0.23039,0.177759 -0.615335,0.177759 -0.845723,0l-1.559999,-1.183206l-1.459612,1.129321c-0.230388,0.177759 -0.615333,0.177759 -0.845721,0c-0.23039,-0.178868 -0.23039,-0.474947 0,-0.653817l1.459611,-1.129322l-1.383056,-1.129322c-0.230389,-0.179425 -0.230389,-0.476615 0,-0.654374c0.230389,-0.177759 0.615334,-0.177759 0.845722,0l1.459611,1.128211l1.45889,-1.129322c0.230388,-0.177758 0.615333,-0.177758 0.845721,0c0.23039,0.17887 0.23039,0.476059 0,0.654373l-1.459611,1.129322zm-5.248389,4.517288l-2.844111,-2.066998l-1.625,0c-0.893389,0 -1.625,-0.626043 -1.625,-1.377629l0,-2.755812c0,-0.751585 0.731611,-1.378184 1.625,-1.378184l1.544111,0l2.925,-1.941456c0.65,-0.501057 1.218388,-0.187757 1.218388,0.501057l0,8.517965c0,0.751585 -0.568388,0.939342 -1.218388,0.501057z" fill-rule="evenodd"/>
 </g>
</svg>