<svg width="10" height="22" xmlns="http://www.w3.org/2000/svg">

 <g>
  <title>background</title>
  <rect fill="none" id="canvas_background" height="24" width="12" y="-1" x="-1"/>
 </g>
 <g>
  <title>Layer 1</title>
  <path id="svg_1" d="m8.991,11.314c0.031,-0.269 -0.046,-0.551 -0.232,-0.758l-1.443,-1.604c-0.091,-0.101 -0.197001,-0.173 -0.311,-0.216l0,-0.006001c-2.986,-0.971 -3.231,1.584001 -3.231,1.584001l0,0.512l-0.004,0.002l0.004,2.389l0.012,-0.002l-1.126,2.524c-0.101,0.186 -0.132999,0.394999 -0.107,0.593l0,0.823999c0,0.718 0.351001,0.837 0.784,0.837c0.427,0 0.774,-0.564999 0.784,-1.268c0.013,-0.02 0.026,-0.041 0.038,-0.063002l1.895,-3.436998c0.081,-0.150001 0.119,-0.314 0.116,-0.476001l0.346,-2.118999l0.944,1.049l0,0.706c0,0.460999 0.345,0.835 0.771,0.835c0.426,0 0.771,-0.374001 0.771,-0.835l0,-1.071l-0.011,0l0,0l0,0zm-5.832,-1.392l-1.754,1.045c-0.389,0.231999 -0.522,0.745 -0.298,1.146c0.225,0.401 0.722,0.539001 1.111001,0.307l0.941,-0.561l0,-1.937l0,0l0,0zm2.15,-1.824c1.021999,0 1.851,-0.917 1.851,-2.046999c0,-1.13 -0.829,-2.046 -1.851,-2.046c-1.022,0 -1.851,0.916 -1.851,2.046c0,1.13 0.829,2.046999 1.851,2.046999l0,0l0,0zm1.212999,6.29l-1.195,1.324l1.831,2.004999c0.331,0.364002 0.869,0.364002 1.201,0c0.331,-0.363998 0.331,-0.953999 0,-1.316999l-1.837001,-2.012l0,0l0,0z" fill-rule="evenodd"/>
 </g>
</svg>