<?xml version="1.0" standalone="no"?><!DOCTYPE svg PUBLIC "-//W3C//DTD SVG 1.1//EN" "http://www.w3.org/Graphics/SVG/1.1/DTD/svg11.dtd"><svg t="1593394455068" class="icon" viewBox="0 0 1024 1024" version="1.1" xmlns="http://www.w3.org/2000/svg" p-id="7181" xmlns:xlink="http://www.w3.org/1999/xlink" width="200" height="200"><defs><style type="text/css"></style></defs><path d="M672.1941333333334 304.3914666666667l193.6128-3.079466666666667L611.4869333333334 35.80799999999999v207.56480000000002c0 61.70986666666667 60.70719999999999 61.01866666666666 60.70719999999999 61.01866666666666z m-104.00319999999999-271.28533333333337H240.78933333333333c-46.69013333333333 0-84.96106666666667 38.208-84.96106666666667 84.96213333333333v786.8981333333334c0 46.69013333333333 38.208 84.96000000000001 84.96213333333333 84.96000000000001h540.1194666666667c46.69013333333333 0 84.96213333333333-38.205866666666665 84.96213333333333-84.96000000000001v-565.1306666666666c-322.31359999999995 0-297.68 36.63466666666667-297.68-306.73066666666665z m-29.2224 734.6773333333333H309.09653333333335c-18.161066666666667 0-32.992-14.830933333333332-32.992-32.992 0-18.162133333333333 14.830933333333332-32.992 32.992-32.992h229.87199999999999c18.162133333333333 0 32.99413333333333 14.829866666666668 32.99413333333333 32.992-0.0010666666666666667 18.161066666666667-14.831999999999999 32.992-32.99413333333333 32.992z m173.56799999999998-131.904H309.09866666666665c-18.161066666666667 0-32.992-14.830933333333332-32.992-32.992 0-18.162133333333333 14.830933333333332-33.056 32.992-33.056h403.5029333333333c18.164266666666666 0 32.992 14.830933333333332 32.992 32.993066666666664 0 18.161066666666667-14.894933333333334 33.056-33.056 33.056z m33.056-172.6261333333333c0 18.161066666666667-14.8288 32.992-32.993066666666664 32.992H309.09653333333335c-18.161066666666667 0-32.992-14.830933333333332-32.992-32.992 0-18.159999999999997 14.830933333333332-33.053866666666664 32.992-33.053866666666664h403.5029333333333c18.098133333333333 0 32.992 14.893866666666666 32.992 33.053866666666664z" p-id="7182"></path></svg>