<?xml version="1.0" standalone="no"?><!DOCTYPE svg PUBLIC "-//W3C//DTD SVG 1.1//EN" "http://www.w3.org/Graphics/SVG/1.1/DTD/svg11.dtd"><svg t="1593410576579" class="icon" viewBox="0 0 1024 1024" version="1.1" xmlns="http://www.w3.org/2000/svg" p-id="3865" xmlns:xlink="http://www.w3.org/1999/xlink" width="200" height="200"><defs><style type="text/css"></style></defs><path d="M 822.144 903.102 H 201.881 c -1.4144 -0.494933 -2.81387 -1.19467 -4.26347 -1.45067 c -35.8976 -6.42453 -59.808 -27.0101 -71.9808 -61.2395 c -2.09387 -5.89227 -3.17653 -12.1685 -4.73707 -18.2699 V 201.877 c 0.493867 -1.43147 1.17227 -2.8096 1.4496 -4.27733 c 7.3632 -39.4219 30.7755 -63.8827 69.2821 -74.224 c 3.3984 -0.9152 6.83093 -1.65333 10.2496 -2.4768 h 533.168 c 22.2016 4.8992 39.6277 18.1429 55.4379 33.2917 a 2748.62 2748.62 0 0 1 77.2896 77.0667 c 15.8827 16.4715 30.1493 34.4309 35.3248 57.6928 v 533.189 c -0.490667 1.41547 -1.17227 2.7936 -1.4496 4.26347 c -7.3632 39.44 -30.7541 63.8795 -69.2821 74.2411 c -3.376 0.9024 -6.81173 1.65227 -10.2229 2.45867 Z m -310.086 -29.9317 c 88.8523 0 177.693 0.0213333 266.528 -0.0341333 c 22.6069 0 34.5248 -11.8795 34.5248 -34.2464 c 0.0170667 -97.504 0.0170667 -195.008 0 -292.496 c 0 -22.4565 -12.0107 -34.5781 -34.2464 -34.5781 c -177.953 -0.0181333 -355.885 -0.0181333 -533.817 0 c -21.8859 0.0213333 -34.1355 12.16 -34.1355 33.9349 c -0.0384 97.7429 -0.0384 195.506 0.016 293.249 c 0 3.54347 0.0938667 7.17973 0.900267 10.5952 c 3.65867 15.4603 15.2597 23.5403 33.7131 23.5573 c 88.8395 0.0384 177.675 0.0181333 266.516 0.0181333 Z m -15.3365 -451.147 h 190.125 c 24.3509 -0.0181333 36.0672 -11.6789 36.0672 -35.9531 c 0.0170667 -66.432 0.0170667 -132.855 0 -199.287 c 0 -24.4405 -11.4784 -35.936 -35.9733 -35.936 c -126.754 -0.0170667 -253.493 -0.0170667 -380.231 0 c -24 0 -35.7333 11.6075 -35.7504 35.4752 c -0.0554667 66.6773 -0.0554667 133.349 0 200.044 c 0.016 23.8507 11.8773 35.6405 35.6587 35.6405 c 63.3664 0.0170667 126.739 0.0170667 190.105 0.0170667 Z m 76.2784 -240.416 h 88.3627 v 209.234 h -88.3627 V 181.606 Z m 0 0" p-id="3866"></path></svg>