<svg 
 xmlns="http://www.w3.org/2000/svg"
 xmlns:xlink="http://www.w3.org/1999/xlink"
 width="14px" height="14px">
<path fill-rule="evenodd"  fill="rgb(24, 144, 255)"
 d="M13.829,3.464 C13.721,3.572 13.571,3.634 13.418,3.634 C13.417,3.634 13.417,3.634 13.416,3.634 L0.583,3.634 C0.583,3.634 0.582,3.634 0.582,3.634 C0.429,3.634 0.279,3.572 0.171,3.464 C0.062,3.355 -0.000,3.205 0.000,3.051 C-0.000,2.898 0.062,2.747 0.171,2.638 C0.279,2.530 0.429,2.468 0.582,2.468 C0.583,2.468 0.583,2.468 0.584,2.468 L2.962,2.468 L2.962,1.570 C2.962,0.704 3.666,0.000 4.532,0.000 L9.479,0.000 C10.339,0.000 11.038,0.704 11.038,1.570 L11.038,2.468 L13.416,2.468 C13.572,2.466 13.719,2.528 13.829,2.638 C13.938,2.747 14.000,2.898 13.999,3.051 C14.000,3.205 13.938,3.355 13.829,3.464 ZM9.479,1.166 L4.532,1.166 C4.309,1.166 4.128,1.348 4.128,1.570 L4.128,2.468 L9.872,2.468 L9.872,1.570 C9.872,1.344 9.699,1.166 9.479,1.166 ZM5.518,11.038 C5.365,11.038 5.215,10.976 5.106,10.868 C4.998,10.759 4.936,10.609 4.936,10.455 L4.936,5.026 C4.936,4.872 4.998,4.722 5.106,4.613 C5.215,4.504 5.365,4.442 5.518,4.442 C5.519,4.442 5.520,4.442 5.521,4.442 C5.674,4.442 5.824,4.504 5.932,4.613 C6.041,4.721 6.103,4.872 6.102,5.026 L6.102,10.455 C6.103,10.609 6.041,10.759 5.932,10.868 C5.824,10.976 5.674,11.038 5.521,11.038 C5.520,11.038 5.519,11.038 5.518,11.038 ZM8.479,11.038 C8.326,11.038 8.176,10.976 8.068,10.868 C7.959,10.759 7.897,10.609 7.898,10.455 L7.898,5.026 C7.897,4.872 7.959,4.722 8.068,4.613 C8.176,4.504 8.326,4.442 8.479,4.442 C8.480,4.442 8.482,4.442 8.483,4.442 C8.635,4.442 8.785,4.504 8.893,4.613 C9.002,4.722 9.064,4.872 9.064,5.026 L9.064,10.455 C9.064,10.609 9.002,10.759 8.893,10.868 C8.785,10.976 8.635,11.038 8.482,11.038 C8.481,11.038 8.480,11.038 8.479,11.038 ZM2.560,4.435 C2.881,4.435 3.143,4.696 3.143,5.018 L3.143,12.430 C3.143,12.652 3.324,12.834 3.547,12.834 L10.459,12.834 C10.682,12.834 10.863,12.652 10.863,12.430 L10.863,5.039 C10.863,4.718 11.124,4.456 11.446,4.456 C11.767,4.456 12.029,4.718 12.029,5.039 L12.029,12.430 C12.027,13.296 11.322,14.000 10.457,14.000 L3.547,14.000 C2.681,14.000 1.977,13.295 1.977,12.430 L1.977,5.018 C1.977,4.696 2.238,4.435 2.560,4.435 Z"/>
</svg>