<?xml version="1.0" standalone="no"?><!DOCTYPE svg PUBLIC "-//W3C//DTD SVG 1.1//EN" "http://www.w3.org/Graphics/SVG/1.1/DTD/svg11.dtd"><svg t="1593410580447" class="icon" viewBox="0 0 1024 1024" version="1.1" xmlns="http://www.w3.org/2000/svg" p-id="3991" xmlns:xlink="http://www.w3.org/1999/xlink" width="200" height="200"><defs><style type="text/css"></style></defs><path d="M582.976 127.552h102.848v243.456H582.976z" p-id="3992"></path><path d="M480 932.224H201.92c-21.504 0-35.008-9.408-39.232-27.392a52.8 52.8 0 0 1-1.024-12.352V551.232c0-25.344 14.272-39.488 39.744-39.488h621.184c0.512 0 0.896 0.256 1.472 0.256H967.04V252.416c-6.016-27.072-22.656-48-41.088-67.136a3210.24 3210.24 0 0 0-89.92-89.664c-18.368-17.6-38.656-33.024-64.512-38.72H151.168c-4.032 0.96-8 1.792-11.968 2.88-44.8 12.032-72.064 40.512-80.64 86.336-0.256 1.728-1.088 3.328-1.664 4.992v721.728c1.792 7.104 3.072 14.4 5.504 21.248 14.144 39.808 41.984 63.808 83.776 71.232 1.664 0.32 3.328 1.088 4.992 1.664H480v-34.752zM231.488 132.992c0-27.776 13.696-41.28 41.6-41.28H715.52c28.48 0 41.856 13.376 41.856 41.792v231.872c0 28.224-13.632 41.792-41.984 41.856H273.024c-27.648 0-41.472-13.696-41.472-41.472-0.128-77.568-0.128-155.136-0.064-232.768z" p-id="3993"></path><path d="M512 549.12V1008h497.984V549.12H512z m438.336 397.568H572.928V613.312h377.408v333.376z" p-id="3994"></path><path d="M635.328 651.264s3.968-6.4 6.784 1.024c0 0 25.344 125.888 135.808 111.936l5.632-36.992s4.992-21.504 23.744-4.16l91.712 97.6s20.416 14.272-5.248 25.664L776 912.576s-17.408 7.872-18.624-9.536l5.952-39.936c0-0.064-196.16-38.72-128-211.84z" p-id="3995"></path></svg>