<svg 
 xmlns="http://www.w3.org/2000/svg"
 xmlns:xlink="http://www.w3.org/1999/xlink"
 width="14px" height="14px">
<path fill-rule="evenodd"  fill="rgb(24, 144, 255)"
 d="M7.072,0.000 C5.338,0.016 3.669,0.655 2.377,1.799 L2.240,0.693 C2.244,0.498 2.157,0.313 2.004,0.191 C1.850,0.069 1.649,0.024 1.457,0.070 C1.261,0.066 1.073,0.152 0.950,0.303 C0.826,0.455 0.781,0.654 0.827,0.843 L0.980,2.708 C1.059,3.608 1.826,4.297 2.741,4.290 L2.882,4.290 L4.771,4.151 C4.968,4.155 5.156,4.068 5.279,3.917 C5.403,3.765 5.448,3.566 5.401,3.377 C5.406,3.182 5.319,2.997 5.165,2.875 C5.012,2.753 4.810,2.709 4.619,2.754 L3.218,2.824 C4.260,1.906 5.602,1.389 6.998,1.369 C10.089,1.367 12.597,3.841 12.601,6.897 C12.606,9.952 10.105,12.433 7.014,12.440 C3.923,12.446 1.411,9.975 1.403,6.920 C1.414,6.733 1.344,6.550 1.210,6.418 C1.076,6.285 0.891,6.216 0.702,6.228 C0.513,6.216 0.328,6.285 0.194,6.418 C0.060,6.550 -0.010,6.733 0.002,6.920 C-0.058,9.430 1.262,11.776 3.452,13.049 C5.642,14.321 8.358,14.321 10.548,13.049 C12.738,11.776 14.058,9.430 13.998,6.920 C14.021,5.091 13.301,3.328 12.000,2.028 C10.698,0.727 8.923,-0.003 7.072,0.000 L7.072,0.000 Z"/>
</svg>