<svg 
 xmlns="http://www.w3.org/2000/svg"
 xmlns:xlink="http://www.w3.org/1999/xlink"
 width="14px" height="14px">
<path fill-rule="evenodd"  fill="rgb(24, 144, 255)"
 d="M5.397,4.299 C5.397,4.119 5.473,3.944 5.611,3.805 C5.748,3.668 5.923,3.591 6.105,3.591 C6.284,3.591 6.459,3.668 6.598,3.805 L9.295,6.502 C9.433,6.640 9.509,6.815 9.509,6.996 C9.509,7.176 9.433,7.351 9.295,7.490 L6.597,10.189 C6.441,10.345 6.308,10.403 6.103,10.403 C5.900,10.403 5.767,10.345 5.611,10.189 C5.473,10.051 5.397,9.876 5.397,9.695 C5.397,9.515 5.473,9.340 5.611,9.201 L7.816,6.996 L5.611,4.793 C5.473,4.655 5.397,4.480 5.397,4.299 ZM13.448,9.718 C13.095,10.551 12.589,11.300 11.944,11.945 C11.300,12.589 10.550,13.095 9.717,13.450 C8.858,13.814 7.944,14.000 7.003,14.000 C6.400,14.000 5.789,13.916 5.189,13.748 C4.600,13.584 4.033,13.345 3.505,13.037 C3.128,12.811 3.091,12.372 3.220,12.029 C3.406,11.734 3.703,11.690 3.864,11.690 C3.981,11.690 4.101,11.712 4.217,11.756 C5.051,12.306 5.989,12.586 7.003,12.586 L7.006,12.586 C10.086,12.586 12.591,10.079 12.591,6.999 C12.591,3.918 10.084,1.411 7.003,1.411 C3.922,1.410 1.416,3.918 1.416,6.999 C1.416,8.173 1.770,9.299 2.439,10.257 L2.441,10.261 L2.442,10.264 C2.648,10.539 2.575,11.047 2.300,11.253 C2.198,11.329 2.056,11.372 1.903,11.372 C1.662,11.372 1.431,11.270 1.312,11.114 C0.442,9.892 -0.000,8.507 -0.000,7.001 C-0.000,6.060 0.186,5.146 0.551,4.283 C0.905,3.450 1.411,2.702 2.056,2.056 C2.700,1.413 3.450,0.906 4.283,0.552 C5.145,0.186 6.059,-0.000 7.000,-0.000 C7.941,-0.000 8.855,0.186 9.717,0.552 C10.550,0.905 11.298,1.411 11.944,2.056 C12.587,2.700 13.094,3.450 13.448,4.283 C13.814,5.146 14.000,6.060 14.000,7.001 C14.000,7.941 13.816,8.856 13.448,9.718 Z"/>
</svg>