<?xml version="1.0" standalone="no"?><!DOCTYPE svg PUBLIC "-//W3C//DTD SVG 1.1//EN" "http://www.w3.org/Graphics/SVG/1.1/DTD/svg11.dtd"><svg t="1592546264669" class="icon" viewBox="0 0 1024 1024" version="1.1" xmlns="http://www.w3.org/2000/svg" p-id="3632" xmlns:xlink="http://www.w3.org/1999/xlink" width="200" height="200"><defs><style type="text/css"></style></defs><path d="M713.595926 49.335638 158.702 49.335638c-43.558052 0-78.867232 35.31532-78.867232 78.866209l0 735.169779c0 43.551912 35.30918 78.866209 78.867232 78.866209l735.169779 0c43.557028 0 78.866209-35.31532 78.866209-78.866209L972.737988 308.46542 713.595926 49.335638zM927.671583 327.142805l0 1.75497L751.627101 328.897775c-31.061436 0-56.337099-25.27464-56.337099-56.336076L695.290001 94.748944 927.671583 327.142805zM893.870756 897.178593 158.702 897.178593c-18.635429 0-33.800827-15.165398-33.800827-33.806967L124.901173 128.201847c0-18.641569 15.165398-33.806967 33.800827-33.806967l491.163439 0 0.360204 0 0 178.165796c0 55.912427 45.490054 101.408621 101.402481 101.408621l176.044482 0 0 489.402329C927.671583 882.013195 912.506185 897.178593 893.870756 897.178593zM665.278477 459.812407 475.875756 350.461907c-12.183484-7.03523-24.267706-10.604522-35.909861-10.604522-25.876344 0-51.994188 18.971074-51.994188 61.356416l0 218.701001c0 42.385343 26.116821 61.355393 51.994188 61.355393 11.642155 0 23.726378-3.569292 35.909861-10.604522L665.272337 561.302893c21.62246-12.465916 34.024931-30.967292 34.024931-50.739615C699.303408 490.790956 686.900937 472.290603 665.278477 459.812407zM646.376988 528.569374 456.976314 637.931131c-7.925507 4.583388-13.622252 5.538133-17.010419 5.538133-12.348236 0-14.193257-14.751982-14.193257-23.555485l0-218.701001c0-8.80248 1.845021-23.555485 14.193257-23.555485 3.388167 0 9.084912 0.954745 17.010419 5.539156l189.400674 109.349477c9.473769 5.467525 15.123442 12.196787 15.123442 18.016329C661.500431 516.373611 655.850757 523.100826 646.376988 528.569374zM160.274822 147.821697l74.383104 0 0 74.376964-74.383104 0 0-74.376964ZM160.274822 299.168684l74.383104 0 0 74.376964-74.383104 0 0-74.376964ZM160.274822 450.514647l74.383104 0 0 74.377988-74.383104 0 0-74.377988ZM160.274822 601.862657l74.383104 0 0 74.376964-74.383104 0 0-74.376964ZM160.274822 753.207597l74.383104 0 0 74.377988-74.383104 0 0-74.377988ZM801.771151 450.514647l74.383104 0 0 74.377988-74.383104 0 0-74.377988ZM801.771151 601.862657l74.383104 0 0 74.376964-74.383104 0 0-74.376964ZM801.771151 753.207597l74.383104 0 0 74.377988-74.383104 0 0-74.377988Z" p-id="3633"></path></svg>