<?xml version="1.0" standalone="no"?><!DOCTYPE svg PUBLIC "-//W3C//DTD SVG 1.1//EN" "http://www.w3.org/Graphics/SVG/1.1/DTD/svg11.dtd"><svg t="1592545931816" class="icon" viewBox="0 0 1024 1024" version="1.1" xmlns="http://www.w3.org/2000/svg" p-id="4005" xmlns:xlink="http://www.w3.org/1999/xlink" width="200" height="200"><defs><style type="text/css"></style></defs><path d="M512.002558 9.18315C235.449965 9.18315 9.182638 235.450477 9.182638 512.002047c0 276.547477 226.267327 502.814804 502.81992 502.814803 276.547477 0 502.812757-226.267327 502.812757-502.814803 0-276.55157-226.26528-502.818897-502.812757-502.818897z m-52.794413 692.678012c0 28.208459-22.8668 51.075259-51.075259 51.075259s-51.075259-22.8668-51.075259-51.075259V322.138838c0-28.207435 22.8668-51.075259 51.075259-51.075259s51.075259 22.8668 51.075259 51.075259v379.722324z m214.894302 0c0 28.208459-22.867824 51.075259-51.074236 51.075259-28.208459 0-51.075259-22.8668-51.075259-51.075259V322.138838c0-28.207435 22.8668-51.075259 51.075259-51.075259 28.206412 0 51.074236 22.8668 51.074236 51.075259v379.722324z" p-id="4006"></path></svg>