<?xml version="1.0" standalone="no"?><!DOCTYPE svg PUBLIC "-//W3C//DTD SVG 1.1//EN" "http://www.w3.org/Graphics/SVG/1.1/DTD/svg11.dtd"><svg t="1593410572552" class="icon" viewBox="0 0 1024 1024" version="1.1" xmlns="http://www.w3.org/2000/svg" p-id="3738" xmlns:xlink="http://www.w3.org/1999/xlink" width="200" height="200"><defs><style type="text/css"></style></defs><path d="M865.046528 923.646976 160.0512 923.646976c-32.472064 0-58.747904-26.335232-58.747904-58.752 0-32.472064 26.27584-58.747904 58.747904-58.747904l704.996352 0c32.415744 0 58.747904 26.27584 58.747904 58.747904C923.795456 897.311744 897.463296 923.646976 865.046528 923.646976L865.046528 923.646976zM336.303104 757.151744c-58.752-33.849344-103.155712-82.388992-133.451776-137.580544l121.516032-27.767808c18.648064 25.127936 42.456064 47.04768 71.199744 63.801344 112.447488 65.171456 255.59552 27.42272 319.85152-84.340736 64.19968-111.819776 25.188352-255.307776-87.264256-320.538624-95.296512-55.363584-212.335616-35.97312-285.028352 39.300096l34.996224-9.811968c32.07168-8.89344 65.179648 11.418624 73.955328 45.382656 8.720384 34.021376-10.211328 68.847616-42.284032 77.797376 0 0-179.69152 48.768-182.503424 49.112064-22.20032 3.899392-44.063744-3.672064-58.747904-18.588672 0 0-13.828096-19.163136-15.432704-24.671232L102.623232 235.0592c-9.295872-32.128 10.783744-64.944128 44.863488-73.320448 34.079744-8.491008 69.192704 10.668032 78.48448 42.740736l8.603648 29.66016C341.118976 99.8912 533.030912 59.959296 687.419392 149.059584c169.70752 97.93536 228.631552 313.53856 131.672064 481.412096C722.130944 798.45888 505.951232 855.143424 336.303104 757.151744L336.303104 757.151744zM336.303104 757.151744" fill="#707070" p-id="3739"></path><path d="M88.689664 805.965824l877.011968 0 0 153.591808-877.011968 0 0-153.591808Z" fill="#707070" p-id="3740"></path></svg>