<svg 
 xmlns="http://www.w3.org/2000/svg"
 xmlns:xlink="http://www.w3.org/1999/xlink"
 width="14px" height="14px">
<path fill-rule="evenodd"  fill="rgb(24, 144, 255)"
 d="M12.268,6.963 L13.819,8.624 C14.060,8.875 14.060,9.293 13.819,9.542 C13.578,9.792 13.176,9.792 12.935,9.542 L11.304,7.882 L9.778,9.467 C9.537,9.717 9.135,9.717 8.894,9.467 C8.653,9.216 8.653,8.800 8.894,8.549 L10.420,6.964 L8.974,5.379 C8.733,5.128 8.733,4.711 8.974,4.461 C9.215,4.212 9.617,4.212 9.858,4.461 L11.384,6.045 L12.909,4.460 C13.150,4.210 13.552,4.210 13.793,4.460 C14.034,4.711 14.034,5.128 13.793,5.378 L12.268,6.963 ZM6.562,13.675 L3.500,10.781 L1.750,10.781 C0.787,10.781 -0.000,9.904 -0.000,8.852 L-0.000,4.993 C-0.000,3.941 0.787,3.064 1.750,3.064 L3.412,3.064 L6.562,0.345 C7.262,-0.356 7.875,0.082 7.875,1.047 L7.875,12.973 C7.875,14.025 7.262,14.289 6.562,13.675 Z"/>
</svg>