<svg 
 xmlns="http://www.w3.org/2000/svg"
 xmlns:xlink="http://www.w3.org/1999/xlink"
 width="14px" height="14px">
<path fill-rule="evenodd"  fill="rgb(24, 144, 255)"
 d="M12.337,11.044 C12.250,11.132 12.075,11.219 11.900,11.219 C11.725,11.395 11.550,11.307 11.462,11.219 C11.200,10.956 11.200,10.518 11.462,10.255 C13.125,8.413 13.125,5.607 11.462,3.765 C11.200,3.502 11.200,3.064 11.462,2.801 C11.725,2.538 12.075,2.538 12.337,2.801 C13.387,3.941 14.000,5.344 14.000,6.922 C14.000,8.501 13.387,9.992 12.337,11.044 ZM10.150,9.816 C9.975,10.079 9.887,10.167 9.712,10.167 C9.537,10.167 9.362,10.079 9.275,9.992 C9.012,9.729 9.012,9.290 9.275,9.027 C10.325,7.887 10.325,6.133 9.275,4.993 C9.012,4.730 9.012,4.292 9.275,4.028 C9.537,3.765 9.887,3.765 10.150,4.028 C11.725,5.607 11.725,8.238 10.150,9.816 ZM6.562,13.675 L3.500,10.781 L1.749,10.781 C0.787,10.781 -0.001,9.904 -0.001,8.852 L-0.001,4.993 C-0.001,3.941 0.787,3.064 1.749,3.064 L3.412,3.064 L6.562,0.345 C7.262,-0.356 7.875,0.082 7.875,1.047 L7.875,12.973 C7.875,14.025 7.262,14.289 6.562,13.675 Z"/>
</svg>