<?xml version="1.0" standalone="no"?><!DOCTYPE svg PUBLIC "-//W3C//DTD SVG 1.1//EN" "http://www.w3.org/Graphics/SVG/1.1/DTD/svg11.dtd"><svg t="1592546269046" class="icon" viewBox="0 0 1024 1024" version="1.1" xmlns="http://www.w3.org/2000/svg" p-id="3751" xmlns:xlink="http://www.w3.org/1999/xlink" width="200" height="200"><defs><style type="text/css"></style></defs><path d="M312.3 218.7c-27.4 0.5-49.2 23.2-48.7 50.6V765.4c-0.6 27.4 21.1 50.2 48.5 50.8h0.1c27.1-1.4 48.4-23.7 48.7-50.8V272c1.6-27.8-19.5-51.6-47.3-53.2-0.4-0.1-0.8-0.1-1.3-0.1zM112.7 360c-27.4 0.5-49.2 23.2-48.7 50.6V632c-0.6 27.4 21.1 50.2 48.5 50.8h0.1c26.6 0.3 48.4-20.9 48.7-47.5 0-1.1 0-2.2-0.1-3.3V410.7c-0.3-27.1-21.6-49.3-48.6-50.8v0.1zM512 64c-27.4 0.5-49.2 23.2-48.7 50.6v794.6c-1.2 26.9 19.7 49.6 46.5 50.7 26.9 1.2 49.6-19.7 50.7-46.5 0.1-1.4 0.1-2.8 0-4.2V112c-1.3-26.1-22.3-46.9-48.5-48z m399.4 296c-27.4 0.5-49.2 23.2-48.7 50.6v221.5c-0.6 27.4 21.1 50.2 48.5 50.8h0.1c27.1-1.4 48.4-23.7 48.6-50.9V410.7c-0.3-27.1-21.6-49.3-48.6-50.8v0.1zM711.7 216c-27.4 0.5-49.2 23.2-48.7 50.6v493.3c-1.2 26.9 19.7 49.6 46.5 50.7 26.9 1.2 49.6-19.7 50.7-46.5 0.1-1.4 0.1-2.8 0-4.2V266.7c0.6-27.4-21.1-50.1-48.5-50.8 0.1 0 0 0 0 0.1z" fill="#AAAAAA" p-id="3752"></path></svg>